<?xml version="1.0" encoding="utf-8"?>
<!DOCTYPE svg PUBLIC "-//W3C//DTD SVG 1.1//EN" "http://www.w3.org/Graphics/SVG/1.1/DTD/svg11.dtd">
<svg version="1.1" id="Layer_1" xmlns="http://www.w3.org/2000/svg" xmlns:xlink="http://www.w3.org/1999/xlink" x="0px" y="0px"
	 width="200px" height="200px" viewBox="0 0 200 200" enable-background="new 0 0 200 200" xml:space="preserve">
<g>
	<path fill="#FFFFFF" d="M71.058,58.842h-8.239c-0.568-1.609-0.852-3.102-0.852-4.475c0-0.995,0.248-1.716,0.745-2.167
		c0.497-0.449,1.314-0.675,2.45-0.675h28.41c17.756,0,29.699,2.179,35.832,6.534c6.131,4.357,9.197,11.483,9.197,21.379
		c0,10.275-3.67,18.253-11.008,23.936c-7.342,5.683-19.557,8.522-36.649,8.522h-3.622c0.094,14.585,0.284,24.339,0.568,29.263
		h10.866c0.568,1.42,0.853,2.794,0.853,4.119c0,1.185-0.237,2.014-0.71,2.486c-0.475,0.474-1.303,0.71-2.486,0.71H62.321
		c-0.616-1.609-0.923-3.101-0.923-4.475c0-0.994,0.248-1.716,0.745-2.166c0.497-0.449,1.314-0.675,2.45-0.675h6.464
		c0.378-6.581,0.568-23.462,0.568-50.641C71.626,75.982,71.436,65.423,71.058,58.842z M93.075,102.947
		c10.416,0,17.708-1.491,21.876-4.475c4.166-2.982,6.25-8.025,6.25-15.128c0-6.818-1.967-12.098-5.896-15.839
		c-3.93-3.739-10.369-5.61-19.317-5.61c-2.983,0-5.683,0.237-8.097,0.71c-0.38,4.073-0.568,13.661-0.568,28.765v11.577H93.075z"/>
</g>
</svg>
