<?xml version="1.0" encoding="utf-8"?>
<!-- Generator: Adobe Illustrator 16.0.0, SVG Export Plug-In . SVG Version: 6.00 Build 0)  -->
<!DOCTYPE svg PUBLIC "-//W3C//DTD SVG 1.1//EN" "http://www.w3.org/Graphics/SVG/1.1/DTD/svg11.dtd">
<svg version="1.1" id="Layer_1" xmlns="http://www.w3.org/2000/svg" xmlns:xlink="http://www.w3.org/1999/xlink" x="0px" y="0px"
	 width="380px" height="110px" viewBox="0 0 380 110" enable-background="new 0 0 380 110" xml:space="preserve">
<g>
	<path fill="#6D6A60" d="M29.375,32.45h-4.437c-0.307-0.866-0.46-1.67-0.46-2.41c0-0.535,0.135-0.924,0.402-1.167
		c0.268-0.241,0.707-0.363,1.319-0.363h15.302c9.562,0,15.995,1.174,19.299,3.52c3.302,2.347,4.953,6.185,4.953,11.515
		c0,5.534-1.977,9.831-5.929,12.891c-3.953,3.061-10.533,4.591-19.739,4.591h-1.95c0.051,7.854,0.152,13.108,0.306,15.76h5.853
		c0.307,0.766,0.459,1.506,0.459,2.219c0,0.638-0.128,1.085-0.383,1.339c-0.255,0.256-0.701,0.383-1.338,0.383H24.67
		c-0.331-0.866-0.497-1.67-0.497-2.41c0-0.535,0.134-0.924,0.401-1.167c0.269-0.241,0.708-0.363,1.32-0.363h3.48
		c0.204-3.544,0.307-12.636,0.307-27.274C29.682,41.683,29.579,35.995,29.375,32.45z M41.233,56.205c5.61,0,9.538-0.803,11.782-2.41
		c2.244-1.606,3.366-4.322,3.366-8.147c0-3.672-1.059-6.516-3.175-8.53c-2.117-2.015-5.585-3.022-10.405-3.022
		c-1.606,0-3.06,0.128-4.36,0.383c-0.204,2.193-0.306,7.357-0.306,15.492v6.235H41.233z"/>
	<path fill="#6D6A60" d="M71.109,44.768c0-0.688,0.269-1.128,0.804-1.319s3.914-0.389,10.137-0.593c0.153,1.173,0.153,2.741,0,4.705
		c2.831-1.913,5.553-3.238,8.167-3.979c2.614-0.739,4.992-1.109,7.135-1.109c0.714,0,1.191,0.083,1.435,0.248
		c0.242,0.167,0.363,0.53,0.363,1.091c0,1.097-0.172,2.27-0.517,3.52c-0.344,1.249-0.759,2.04-1.243,2.371
		c-0.484,0.332-1.288,0.587-2.41,0.766s-1.778,0.217-1.97,0.114c-0.191-0.102-0.771-0.803-1.74-2.104
		c-2.271,0-4.106,0.721-5.509,2.161c-1.403,1.441-2.104,4.342-2.104,8.702c0.024,7.83,0.127,13.645,0.306,17.443h5.394
		c0.306,0.664,0.459,1.378,0.459,2.143c0,0.688-0.141,1.161-0.421,1.415c-0.28,0.256-0.816,0.383-1.606,0.383H71.607
		c-0.332-0.815-0.498-1.581-0.498-2.295c0-0.561,0.141-0.976,0.421-1.243c0.28-0.269,0.739-0.402,1.377-0.402h2.64
		c0.204-3.799,0.307-8.772,0.307-14.918c0-7.523-0.294-11.884-0.88-13.083c-0.587-1.198-1.709-1.798-3.366-1.798
		C71.275,46.272,71.109,45.533,71.109,44.768z"/>
	<path fill="#6D6A60" d="M119.844,81.49c-5.533,0-9.601-1.466-12.202-4.398s-3.902-7.357-3.902-13.274
		c0-6.809,1.575-12.101,4.725-15.875c3.149-3.773,7.695-5.661,13.638-5.661c5.533,0,9.602,1.467,12.202,4.399
		c2.602,2.933,3.902,7.37,3.902,13.312c0,6.784-1.575,12.063-4.725,15.837C130.331,79.604,125.786,81.49,119.844,81.49z
		 M121.298,76.364c2.907,0,5.011-1.096,6.312-3.289s1.951-5.572,1.951-10.138c0-5.253-0.67-9.154-2.009-11.705
		c-1.339-2.55-3.641-3.825-6.904-3.825c-2.907,0-5.011,1.097-6.312,3.29s-1.951,5.585-1.951,10.175c0,5.229,0.67,9.117,2.009,11.667
		C115.732,75.09,118.033,76.364,121.298,76.364z"/>
	<path fill="#6D6A60" d="M179.558,56.243c0,10.687,0.089,17.533,0.268,20.542h4.055c0.331,0.664,0.497,1.378,0.497,2.143
		c0,0.688-0.14,1.161-0.421,1.415c-0.28,0.256-0.828,0.383-1.645,0.383h-13.503c-0.307-0.815-0.459-1.581-0.459-2.295
		c0-0.561,0.134-0.976,0.401-1.243c0.268-0.269,0.732-0.402,1.396-0.402h1.301c0.178-3.748,0.268-8.989,0.268-15.722
		c0-5.253-0.555-8.747-1.664-10.481c-1.109-1.733-2.901-2.602-5.375-2.602c-1.606,0-3.182,0.6-4.724,1.799
		c-1.544,1.198-2.314,3.354-2.314,6.464v8.072c0,4.514,0.089,8.671,0.268,12.47h3.099c0.306,0.664,0.459,1.378,0.459,2.143
		c0,0.688-0.141,1.161-0.421,1.415c-0.281,0.256-0.816,0.383-1.606,0.383h-13.886c-0.332-0.815-0.498-1.581-0.498-2.295
		c0-0.561,0.141-0.976,0.421-1.243c0.28-0.269,0.739-0.402,1.377-0.402h2.64c0.204-4.055,0.307-9.027,0.307-14.918
		c0-7.523-0.294-11.884-0.88-13.083c-0.587-1.198-1.709-1.798-3.366-1.798c-0.332-0.714-0.498-1.453-0.498-2.219
		c0-0.688,0.269-1.128,0.804-1.319s3.914-0.389,10.137-0.593c0.153,1.173,0.153,2.678,0,4.514c2.525-1.684,4.954-2.92,7.287-3.711
		c2.334-0.79,4.495-1.186,6.484-1.186c2.524,0,4.463,0.439,5.814,1.319s2.27,1.996,2.754,3.348c2.296-1.556,4.597-2.723,6.905-3.5
		c2.308-0.778,4.431-1.167,6.369-1.167c3.137,0,5.565,0.784,7.287,2.353s2.582,4.559,2.582,8.97c0,13.721,0.197,20.989,0.593,21.805
		c0.396,0.816,1.307,1.212,2.735,1.186c0.28,0.74,0.421,1.479,0.421,2.219c0,0.688-0.218,1.147-0.65,1.377
		c-0.435,0.229-1.237,0.345-2.41,0.345c-3.545,0-5.713-0.044-6.503-0.134c-0.791-0.089-1.326-0.356-1.606-0.804
		c-0.281-0.445-0.421-1.191-0.421-2.237V61.063c0-5.253-0.555-8.747-1.664-10.481c-1.109-1.733-2.901-2.602-5.375-2.602
		c-1.606,0-3.182,0.6-4.724,1.799C180.328,50.978,179.558,53.133,179.558,56.243z"/>
	<path fill="#6D6A60" d="M230.281,42.281c4.743,0,8.263,1.122,10.558,3.366s3.442,5.942,3.442,11.094
		c0,2.27-0.408,3.851-1.224,4.743c-0.816,0.893-2.602,1.339-5.355,1.339h-16.908c0.051,4.157,0.886,7.421,2.506,9.793
		c1.619,2.371,4.481,3.558,8.588,3.558c3.825,0,7.383-0.995,10.673-2.984c1.096,1.097,1.645,2.257,1.645,3.481
		c0,1.709-1.409,2.907-4.227,3.596c-2.818,0.688-6,1.033-9.545,1.033c-6.528,0-11.214-1.384-14.058-4.151
		c-2.844-2.767-4.266-7.427-4.266-13.981c0-6.451,1.601-11.546,4.801-15.281C220.111,44.149,224.568,42.281,230.281,42.281z
		 M228.827,47.407c-2.55,0-4.488,0.912-5.814,2.735s-2.053,4.673-2.181,8.549h3.94c4.183,0,7.032-0.082,8.55-0.248
		c1.517-0.166,2.396-0.44,2.64-0.822c0.242-0.383,0.363-1.097,0.363-2.143c0-2.524-0.638-4.501-1.913-5.93
		C233.137,48.121,231.275,47.407,228.827,47.407z"/>
	<path fill="#6D6A60" d="M252.964,43.237h2.602l3.099-10.863c1.071,0.331,1.982,0.727,2.735,1.186
		c0.752,0.459,1.307,1.001,1.664,1.626c0.356,0.625,0.535,2.786,0.535,6.483v1.568h12.585c0.307,0.842,0.459,1.734,0.459,2.678
		c0,0.74-0.14,1.23-0.421,1.473c-0.28,0.243-0.841,0.363-1.683,0.363h-10.94v18.094c0,4.311,0.396,7.147,1.186,8.512
		s1.982,2.085,3.577,2.161c1.594,0.077,3.551-0.445,5.872-1.568c0.561,0.842,0.841,1.76,0.841,2.754
		c0,1.353-0.745,2.258-2.237,2.717s-3.845,0.688-7.058,0.688c-3.494,0-6.038-0.714-7.632-2.143
		c-1.594-1.428-2.391-4.093-2.391-7.995v-8.989c0-4.896-0.141-9.64-0.421-14.23h-3.749c-0.306-0.918-0.459-1.81-0.459-2.678
		c0-0.637,0.14-1.103,0.421-1.396C251.829,43.385,252.301,43.237,252.964,43.237z"/>
	<path fill="#6D6A60" d="M300.246,42.281c4.743,0,8.263,1.122,10.558,3.366s3.442,5.942,3.442,11.094
		c0,2.27-0.408,3.851-1.224,4.743c-0.816,0.893-2.602,1.339-5.355,1.339h-16.908c0.051,4.157,0.886,7.421,2.506,9.793
		c1.619,2.371,4.481,3.558,8.588,3.558c3.825,0,7.383-0.995,10.673-2.984c1.096,1.097,1.645,2.257,1.645,3.481
		c0,1.709-1.409,2.907-4.227,3.596c-2.818,0.688-6,1.033-9.545,1.033c-6.528,0-11.214-1.384-14.058-4.151
		c-2.844-2.767-4.266-7.427-4.266-13.981c0-6.451,1.601-11.546,4.801-15.281C290.076,44.149,294.533,42.281,300.246,42.281z
		 M298.792,47.407c-2.55,0-4.488,0.912-5.814,2.735s-2.053,4.673-2.181,8.549h3.94c4.183,0,7.032-0.082,8.55-0.248
		c1.517-0.166,2.396-0.44,2.64-0.822c0.242-0.383,0.363-1.097,0.363-2.143c0-2.524-0.638-4.501-1.913-5.93
		C303.102,48.121,301.24,47.407,298.792,47.407z"/>
	<path fill="#6D6A60" d="M337.465,81.49c-5.533,0-9.601-1.466-12.202-4.398s-3.902-7.357-3.902-13.274
		c0-6.809,1.575-12.101,4.725-15.875c3.149-3.773,7.695-5.661,13.638-5.661c5.533,0,9.602,1.467,12.202,4.399
		c2.602,2.933,3.902,7.37,3.902,13.312c0,6.784-1.575,12.063-4.725,15.837C347.952,79.604,343.407,81.49,337.465,81.49z
		 M338.919,76.364c2.907,0,5.011-1.096,6.312-3.289s1.951-5.572,1.951-10.138c0-5.253-0.67-9.154-2.009-11.705
		c-1.339-2.55-3.641-3.825-6.904-3.825c-2.907,0-5.011,1.097-6.312,3.29s-1.951,5.585-1.951,10.175c0,5.229,0.67,9.117,2.009,11.667
		C333.354,75.09,335.654,76.364,338.919,76.364z"/>
</g>
</svg>
